<?xml version="1.0" encoding="UTF-8"?>
<svg xmlns="http://www.w3.org/2000/svg" xmlns:xlink="http://www.w3.org/1999/xlink" version="1.1" id="Layer_1" x="0px" y="0px" viewBox="0 0 53 38.55" style="enable-background:new 0 0 53 38.55;" xml:space="preserve">
<style type="text/css">
	.st0{fill:#D3985A;}
	.st1{fill-rule:evenodd;clip-rule:evenodd;fill:#D3985A;}
</style>
<path class="st0" d="M52.88,27.11l-4.3-17.17c-0.39-1.58-1.82-2.72-3.49-2.72H33.71V2.39c0-1.31-1.07-2.39-2.39-2.39H4.81  C3.49,0,2.42,1.08,2.42,2.39v24.1C1.07,26.49,0,27.56,0,28.9v2.42c0,1.31,1.07,2.39,2.42,2.39h5.64c1.34,2.87,4.24,4.84,7.58,4.84  c3.37,0,6.27-1.97,7.61-4.84h8.87c1.37,2.87,4.27,4.84,7.61,4.84s6.24-1.97,7.61-4.84h3.22c1.34,0,2.42-1.08,2.42-2.39v-3.34  C53,27.71,52.97,27.41,52.88,27.11z M7.32,31.32h-4.9V28.9h4.9c-0.06,0.39-0.09,0.81-0.09,1.19C7.23,30.52,7.26,30.9,7.32,31.32z   M10.42,22.6V7.32h2.84v2.75c0,0.36,0.15,0.69,0.39,0.93c0.24,0.24,0.57,0.39,0.93,0.39l7.02-0.03c0.33,0,0.66-0.12,0.9-0.39  c0.27-0.24,0.39-0.57,0.39-0.9V7.32l2.84,0.03V22.6h-6.27c-1.13-0.6-2.42-0.93-3.79-0.93c-1.37,0-2.66,0.33-3.79,0.93H10.42z   M15.86,9.05V7.32h4.42v1.73H15.86z M15.65,36.13c-3.31,0-6-2.72-6-6.03c0-2.03,1.02-3.82,2.57-4.9c0.96-0.69,2.15-1.1,3.43-1.1  s2.48,0.42,3.46,1.1c1.55,1.07,2.57,2.87,2.57,4.9C21.68,33.41,18.96,36.13,15.65,36.13z M22.48,25.2h4.51  c0.72,0,1.31-0.57,1.31-1.28V6.03c0-0.33-0.15-0.66-0.39-0.9c-0.24-0.27-0.57-0.39-0.93-0.39L9.14,4.72c-0.36,0-0.69,0.15-0.93,0.39  C7.97,5.34,7.82,5.67,7.82,6.03v17.89c0,0.33,0.15,0.66,0.39,0.9c0.18,0.18,0.42,0.3,0.66,0.33c-0.33,0.42-0.57,0.87-0.81,1.34H4.81  V2.9c0-0.27,0.21-0.51,0.48-0.51h25.59c0.24,0,0.45,0.21,0.45,0.45v23.65h-8.06C23.05,26.04,22.78,25.59,22.48,25.2z M31.41,31.32  h-7.43c0.06-0.42,0.12-0.81,0.12-1.22c0-0.39-0.06-0.81-0.12-1.19h7.43c-0.06,0.39-0.09,0.81-0.09,1.19  C31.32,30.52,31.35,30.9,31.41,31.32z M40.94,9.61h4.15c0.57,0,1.05,0.39,1.16,0.93l1.58,6.33h-6.9V9.61z M39.74,36.13  c-3.31,0-6.03-2.72-6.03-6.03s2.72-6,6.03-6s6.03,2.69,6.03,6S43.06,36.13,39.74,36.13z M39.74,21.68c-2.36,0-4.48,0.99-6.03,2.54  V9.61h4.84v7.26c0,1.31,1.08,2.39,2.39,2.39h7.49l1.82,7.23h-2.9C45.98,23.65,43.09,21.68,39.74,21.68z M50.58,31.32h-2.51  c0.06-0.42,0.09-0.81,0.09-1.22c0-0.39-0.03-0.81-0.09-1.19h2.51V31.32z"></path>
</svg>
