<?xml version="1.0" encoding="UTF-8"?>
<svg xmlns="http://www.w3.org/2000/svg" xmlns:xlink="http://www.w3.org/1999/xlink" version="1.1" id="Layer_1" x="0px" y="0px" viewBox="0 0 45.31 53" style="enable-background:new 0 0 45.31 53;" xml:space="preserve">
<style type="text/css">
	.st0{fill:#D3985A;}
	.st1{fill-rule:evenodd;clip-rule:evenodd;fill:#D3985A;}
</style>
<g>
	<path class="st0" d="M44.12,26.74c-0.02-0.01-0.04-0.04-0.06-0.05l-0.24-0.13c-0.02-0.01-0.05-0.02-0.07-0.03L25.1,18.11   c1.38-0.86,2.26-2.37,2.27-4.07c0.01-2.1-1.38-3.96-3.34-4.59V8.4h0.24c0.67,0,1.24-0.46,1.4-1.1l1.67-5.44   c0.12-0.47,0.02-0.92-0.25-1.28C26.82,0.22,26.41,0.01,25.96,0c0,0-0.01,0-0.01,0h-6.72c-0.4,0.01-0.77,0.17-1.04,0.45   c-0.27,0.28-0.41,0.65-0.41,1.04c0,0.11,0.02,0.21,0.04,0.32l1.69,5.51c0.15,0.61,0.72,1.07,1.39,1.07h0.24v2.27   c0,0.8,0.65,1.44,1.44,1.44c1.06,0,1.92,0.86,1.92,1.92c0,1.06-0.86,1.92-1.92,1.92c-1.06,0-1.92-0.86-1.92-1.92   c0-0.8-0.65-1.44-1.44-1.44c-0.79,0-1.45,0.64-1.46,1.43c0.01,1.82,1.05,3.4,2.57,4.17L1.47,26.56c-0.04,0.02-0.07,0.04-0.11,0.06   c-0.03,0.02-0.06,0.03-0.07,0.03c-0.04,0.03-0.05,0.05-0.08,0.08C0.54,26.78,0,27.33,0,28.02V51.7C0,52.42,0.58,53,1.3,53h42.71   c0.72,0,1.3-0.58,1.3-1.3V27.91C45.26,27.28,44.75,26.79,44.12,26.74z M6.86,26.42l16.02-6.2l15.73,6.2H6.86z M24.05,2.89   l-0.87,2.62H22l-0.87-2.62H24.05z M42.71,50.4H2.6V29.32h40.11V50.4z"></path>
	<path class="st0" d="M25.12,48.21l13.92,0.01c0.62,0,1.13-0.51,1.13-1.13l0.01-13.92c0-0.3-0.11-0.58-0.33-0.8   c-0.21-0.22-0.5-0.34-0.8-0.34l-13.92-0.01c-0.3,0-0.58,0.12-0.8,0.33c-0.21,0.22-0.33,0.5-0.33,0.8l-0.01,13.92   c0,0.3,0.12,0.58,0.33,0.8C24.54,48.1,24.82,48.21,25.12,48.21z M30.49,34.3l3.2,0l0,1.09l-3.2,0.01L30.49,34.3z M35.95,34.3   l1.97,0l-0.01,11.65l-11.66-0.01l0.01-11.66l1.96,0l0.01,2.02c0,0.3,0.12,0.59,0.34,0.81c0.22,0.21,0.5,0.32,0.8,0.32l5.46-0.01   c0.62,0,1.13-0.51,1.12-1.13L35.95,34.3z"></path>
</g>
</svg>
