<?xml version="1.0" encoding="UTF-8"?>
<svg xmlns="http://www.w3.org/2000/svg" xmlns:xlink="http://www.w3.org/1999/xlink" version="1.1" id="Layer_1" x="0px" y="0px" viewBox="0 0 45.31 53" style="enable-background:new 0 0 45.31 53;" xml:space="preserve">
<style type="text/css">
	.st0{fill:#D3985A;}
	.st1{fill-rule:evenodd;clip-rule:evenodd;fill:#D3985A;}
</style>
<g>
	<path class="st0" d="M44.13,26.74c-0.02-0.02-0.04-0.04-0.07-0.05c-0.16-0.09-0.2-0.11-0.24-0.13c-0.02-0.01-0.05-0.02-0.07-0.03   L25.1,18.11c1.38-0.86,2.26-2.37,2.27-4.07c0.01-2.1-1.38-3.96-3.34-4.59V8.4h0.24c0.67,0,1.24-0.46,1.4-1.1l1.67-5.44   c0.12-0.47,0.02-0.92-0.25-1.28C26.82,0.22,26.41,0.01,25.96,0c0,0-0.01,0-0.01,0h-6.72c-0.4,0.01-0.77,0.17-1.04,0.45   c-0.27,0.28-0.41,0.65-0.41,1.04c0,0.11,0.02,0.21,0.04,0.32l1.69,5.51c0.15,0.61,0.72,1.07,1.39,1.07h0.24v2.27   c0,0.8,0.65,1.44,1.44,1.44c1.06,0,1.92,0.86,1.92,1.92c0,1.06-0.86,1.92-1.92,1.92s-1.92-0.86-1.92-1.92   c0-0.8-0.65-1.44-1.44-1.44c-0.79,0-1.45,0.64-1.46,1.43c0.01,1.82,1.05,3.4,2.57,4.17L1.47,26.56c-0.04,0.02-0.07,0.04-0.11,0.06   c-0.03,0.02-0.06,0.03-0.07,0.03c-0.04,0.03-0.05,0.05-0.08,0.08C0.54,26.78,0,27.33,0,28.02V51.7C0,52.42,0.58,53,1.3,53h42.71   c0.72,0,1.3-0.58,1.3-1.3V27.91C45.26,27.28,44.75,26.8,44.13,26.74z M6.86,26.42l16.02-6.2l15.73,6.2H6.86z M24.05,2.89   l-0.87,2.62H22l-0.87-2.62H24.05z M42.71,50.4H2.6V29.32h40.11V50.4z"></path>
	<path class="st0" d="M8.12,45.19c0.72,0,1.3-0.58,1.3-1.3v-8.17c-0.05-0.68-0.62-1.2-1.3-1.2c-0.72,0-1.3,0.58-1.3,1.3v8.06   C6.83,44.61,7.41,45.19,8.12,45.19z"></path>
	<path class="st0" d="M15.43,45.19c0.72,0,1.3-0.58,1.3-1.3v-8.17c-0.05-0.68-0.62-1.2-1.3-1.2c-0.72,0-1.3,0.58-1.3,1.3v8.06   C14.13,44.61,14.71,45.19,15.43,45.19z"></path>
	<path class="st0" d="M22.71,45.19c0.72,0,1.3-0.58,1.3-1.3v-8.17c-0.05-0.68-0.62-1.2-1.3-1.2c-0.72,0-1.3,0.58-1.3,1.3v8.06   C21.41,44.61,21.99,45.19,22.71,45.19z"></path>
	<path class="st0" d="M29.93,45.19c0.72,0,1.3-0.58,1.3-1.3v-8.17c-0.05-0.68-0.62-1.2-1.3-1.2c-0.72,0-1.3,0.58-1.3,1.3v8.06   C28.63,44.61,29.21,45.19,29.93,45.19z"></path>
	<path class="st0" d="M37.18,45.19c0.72,0,1.3-0.58,1.3-1.3v-8.17c-0.05-0.68-0.62-1.2-1.3-1.2c-0.72,0-1.3,0.58-1.3,1.3v8.06   C35.88,44.61,36.47,45.19,37.18,45.19z"></path>
</g>
</svg>
