<?xml version="1.0" encoding="UTF-8"?>
<svg xmlns="http://www.w3.org/2000/svg" xmlns:xlink="http://www.w3.org/1999/xlink" version="1.1" id="Layer_1" x="0px" y="0px" viewBox="0 0 53 38.55" style="enable-background:new 0 0 53 38.55;" xml:space="preserve">
<style type="text/css">
	.st0{fill:#D3985A;}
	.st1{fill-rule:evenodd;clip-rule:evenodd;fill:#D3985A;}
</style>
<g>
	<path class="st0" d="M52.88,27.11l-4.3-17.17c-0.39-1.58-1.82-2.72-3.49-2.72H33.71V2.39c0-1.31-1.07-2.39-2.39-2.39H4.81   C3.49,0,2.42,1.08,2.42,2.39v24.1C1.07,26.49,0,27.56,0,28.9v2.42c0,1.31,1.07,2.39,2.42,2.39h5.64c1.34,2.87,4.24,4.84,7.58,4.84   c3.37,0,6.27-1.97,7.61-4.84h8.87c1.37,2.87,4.27,4.84,7.61,4.84s6.24-1.97,7.61-4.84h3.22c1.34,0,2.42-1.08,2.42-2.39v-3.34   C53,27.71,52.97,27.41,52.88,27.11z M7.32,31.32h-4.9V28.9h4.9c-0.06,0.39-0.09,0.81-0.09,1.19C7.23,30.52,7.26,30.9,7.32,31.32z    M15.65,36.13c-3.31,0-6-2.72-6-6.03c0-2.03,1.02-3.82,2.57-4.9c0.96-0.69,2.15-1.1,3.43-1.1s2.48,0.42,3.46,1.1   c1.55,1.07,2.57,2.87,2.57,4.9C21.68,33.41,18.96,36.13,15.65,36.13z M22.48,25.2c-0.78-1.1-1.82-2-3.05-2.6   c-1.13-0.6-2.42-0.93-3.79-0.93c-1.37,0-2.66,0.33-3.79,0.93c-1.19,0.6-2.21,1.46-2.99,2.54c-0.33,0.42-0.57,0.87-0.81,1.34H4.81   V2.9c0-0.27,0.21-0.51,0.48-0.51h25.59c0.24,0,0.45,0.21,0.45,0.45v23.65h-8.06C23.05,26.04,22.78,25.59,22.48,25.2z M31.41,31.32   h-7.43c0.06-0.42,0.12-0.81,0.12-1.22c0-0.39-0.06-0.81-0.12-1.19h7.43c-0.06,0.39-0.09,0.81-0.09,1.19   C31.32,30.52,31.35,30.9,31.41,31.32z M40.94,9.61h4.15c0.57,0,1.05,0.39,1.16,0.93l1.58,6.33h-6.9V9.61z M39.74,36.13   c-3.31,0-6.03-2.72-6.03-6.03s2.72-6,6.03-6s6.03,2.69,6.03,6S43.06,36.13,39.74,36.13z M39.74,21.68c-2.36,0-4.48,0.99-6.03,2.54   V9.61h4.84v7.26c0,1.31,1.08,2.39,2.39,2.39h7.49l1.82,7.23h-2.9C45.98,23.65,43.09,21.68,39.74,21.68z M50.58,31.32h-2.51   c0.06-0.42,0.09-0.81,0.09-1.22c0-0.39-0.03-0.81-0.09-1.19h2.51V31.32z"></path>
	<path class="st0" d="M18.07,4.38L18.07,4.38c-4.64,0-8.42,3.78-8.42,8.42s3.78,8.42,8.42,8.42c4.64,0,8.42-3.78,8.42-8.42   C26.48,8.16,22.7,4.39,18.07,4.38z M18.06,19.15c-3.5,0-6.35-2.85-6.35-6.35s2.85-6.35,6.35-6.35s6.35,2.85,6.35,6.35   C24.41,16.3,21.56,19.14,18.06,19.15z"></path>
	<path class="st0" d="M19.1,12.37v-4c0-0.57-0.47-1.04-1.04-1.04s-1.04,0.47-1.04,1.04v4.43c0,0.28,0.11,0.54,0.3,0.73l2.21,2.21   c0.2,0.19,0.45,0.29,0.72,0.29c0.28,0,0.55-0.11,0.75-0.32c0.39-0.4,0.39-1.04,0-1.44L19.1,12.37z"></path>
</g>
</svg>
