<?xml version="1.0" encoding="UTF-8"?>
<svg xmlns="http://www.w3.org/2000/svg" xmlns:xlink="http://www.w3.org/1999/xlink" version="1.1" id="Layer_1" x="0px" y="0px" viewBox="0 0 53 43.84" style="enable-background:new 0 0 53 43.84;" xml:space="preserve">
<style type="text/css">
	.st0{fill:#D3985A;}
	.st1{fill-rule:evenodd;clip-rule:evenodd;fill:#D3985A;}
</style>
<g>
	<path class="st0" d="M52.93,37.19l-2.39-9.56c-0.25-1-1.15-1.7-2.17-1.7h-6.1v-2.45c0-0.87-0.7-1.57-1.57-1.57H25.94   c-0.87,0-1.57,0.7-1.57,1.57v13.2c-0.76,0.11-1.34,0.77-1.34,1.56v1.34c0,0.87,0.71,1.57,1.57,1.57h3   c0.84,1.63,2.54,2.69,4.38,2.69c1.83,0,3.54-1.05,4.38-2.69h4.66c0.84,1.63,2.54,2.69,4.38,2.69c1.83,0,3.54-1.05,4.38-2.69h1.66   c0.87,0,1.57-0.7,1.57-1.57v-1.85C53,37.56,52.98,37.38,52.93,37.19z M46.06,33.11h3.99l0.89,3.56h-1.17   c-0.84-1.63-2.54-2.68-4.38-2.68c-1.16,0-2.25,0.39-3.12,1.12v-7.37h2.22v3.8C44.49,32.41,45.19,33.11,46.06,33.11z M46.29,31.31   v-3.57h2.08c0.2,0,0.38,0.14,0.43,0.33l0.81,3.23H46.29z M45.39,35.79c1.72,0,3.12,1.4,3.12,3.12s-1.4,3.12-3.12,3.12   c-1.72,0-3.12-1.4-3.12-3.12S43.67,35.79,45.39,35.79z M50.29,38.48h0.9v0.88h-0.9c0.02-0.16,0.02-0.3,0.02-0.44   C50.32,38.78,50.31,38.64,50.29,38.48z M27.07,39.36h-2.25v-0.88h2.25c-0.02,0.16-0.02,0.3-0.02,0.44S27.06,39.2,27.07,39.36z    M40.49,39.36h-3.61c0.02-0.16,0.02-0.3,0.02-0.44s-0.01-0.29-0.02-0.44h3.61c-0.02,0.16-0.02,0.3-0.02,0.44   S40.47,39.2,40.49,39.36z M31.98,35.79c1.72,0,3.12,1.4,3.12,3.12s-1.4,3.12-3.12,3.12s-3.12-1.4-3.12-3.12   S30.25,35.79,31.98,35.79z M40.47,23.73v12.94h-4.11c-0.84-1.63-2.54-2.68-4.38-2.68c-1.84,0-3.54,1.05-4.38,2.68h-1.43l0.04-12.96   L40.47,23.73z"></path>
	<path class="st0" d="M21.39,14.89l1.23,0c0,0,0.01,0,0.01,0.01l-1.77,4.14c-0.05,0.11,0.03,0.24,0.16,0.24l3.64,0   c0.22,0,0.44-0.07,0.62-0.21l5.56-4.17c0,0,0,0,0,0l4.92,0c2.04,0,4.05-0.38,5.95-1.13c1.36-0.54,2.3-1.85,2.27-3.31   c-0.02-1.4-0.87-2.63-2.18-3.15c-1.93-0.77-3.96-1.16-6.04-1.16l-2.9,0c0,0,0,0,0,0l-7.5-4.99c-0.25-0.17-0.55-0.26-0.85-0.26   l-3.47,0c-0.17,0-0.29,0.18-0.21,0.34l2.46,4.91c0,0,0,0.01-0.01,0.01l-4.12,0c0,0,0,0-0.01,0l-2.33-5.42   C16.64,0.28,16.22,0,15.75,0l-2.96,0c-0.19,0-0.35,0.16-0.35,0.35l0,5.78c0,0,0,0.01-0.01,0.01l-1.43,0   c-0.17,0-0.31,0.14-0.31,0.31c0,0.7,0.24,1.9,0.52,2.47C12.56,11.59,17.19,14.89,21.39,14.89z M24.42,17.51l-1.01,0l1.88-4.38   l4.97,0L24.42,17.51z M24.44,2.62l5.26,3.5l-4.45,0l-1.75-3.5L24.44,2.62z M15.37,1.75l1.88,4.38l-3.05,0l0-4.38L15.37,1.75z    M35.75,7.88c1.85,0,3.67,0.35,5.39,1.04c0.65,0.26,1.08,0.88,1.08,1.59c0,0.7-0.42,1.33-1.08,1.59c-1.72,0.69-3.54,1.04-5.39,1.04   l-3.17,0l0-1.3c0-0.25-0.2-0.45-0.45-0.45l-7.67,0c-0.21,0-0.39,0.12-0.47,0.31l-0.62,1.44l-1.99,0c-3.57,0-6.9-2.34-8.95-5.25   L35.75,7.88z"></path>
	<path class="st0" d="M18.74,39.97l3.23-9.05c0.16-0.44-0.07-0.93-0.51-1.08c-0.01,0-0.01,0-0.02-0.01l-2.06-0.69l-1.6-8.82   c-0.07-0.4-0.42-0.7-0.83-0.7h-3.39v-2.54c0-0.47-0.38-0.85-0.85-0.85H9.32c-0.47,0-0.85,0.38-0.85,0.85v2.54H5.08   c-0.41,0-0.76,0.29-0.83,0.7l-1.6,8.82l-2.06,0.69c-0.44,0.15-0.68,0.63-0.54,1.07c0,0.01,0,0.01,0.01,0.02l3.23,9.05   c-0.77,0.11-1.49,0.48-2.02,1.05C0.96,41.4,0.49,41.63,0,41.64v1.69c0.92,0,1.79-0.39,2.41-1.07c0.31-0.39,0.77-0.61,1.26-0.62   c0.18,0,0.36,0.03,0.52,0.1c0.01,0,0.01,0.01,0.02,0.01c0.27,0.13,0.51,0.31,0.71,0.52c0.63,0.67,1.5,1.06,2.42,1.06   c0.92,0,1.79-0.39,2.41-1.07c0.53-0.7,1.53-0.83,2.22-0.3c0.11,0.08,0.21,0.18,0.3,0.3c0.62,0.68,1.49,1.07,2.41,1.07   c0.92-0.01,1.79-0.39,2.42-1.06c0.2-0.21,0.44-0.39,0.71-0.52c0.01,0,0.01-0.01,0.02-0.01c0.17-0.07,0.34-0.1,0.52-0.1   c0.49,0.01,0.95,0.24,1.26,0.62c0.62,0.68,1.49,1.07,2.41,1.07v-1.69c-0.49-0.01-0.95-0.24-1.26-0.62   C20.23,40.45,19.51,40.08,18.74,39.97z M10.16,17.93h1.69v1.69h-1.69V17.93z M10.16,40.06c-0.59,0.18-1.13,0.51-1.56,0.96   c-0.53,0.7-1.53,0.83-2.23,0.29c-0.11-0.08-0.21-0.18-0.29-0.29c-0.26-0.26-0.55-0.48-0.87-0.67l-3.28-9.18l8.23-2.74V40.06z    M10.74,26.44l-6.26,2.09l1.31-7.21h10.44l1.31,7.21l-6.26-2.09C11.1,26.38,10.92,26.38,10.74,26.44z M16.8,40.35   c-0.31,0.19-0.6,0.41-0.86,0.67c-0.53,0.7-1.53,0.83-2.22,0.3c-0.11-0.09-0.21-0.18-0.3-0.3c-0.43-0.45-0.97-0.78-1.57-0.97V28.42   l8.23,2.74L16.8,40.35z"></path>
</g>
</svg>
