<?xml version="1.0" encoding="UTF-8"?>
<svg xmlns="http://www.w3.org/2000/svg" xmlns:xlink="http://www.w3.org/1999/xlink" version="1.1" id="Layer_1" x="0px" y="0px" viewBox="0 0 53 42.08" style="enable-background:new 0 0 53 42.08;" xml:space="preserve">
<style type="text/css">
	.st0{fill:#D3985A;}
	.st1{fill-rule:evenodd;clip-rule:evenodd;fill:#D3985A;}
</style>
<g>
	<path class="st0" d="M30.95,17.76L29.9,13.7c-0.12-0.39-0.47-0.65-0.88-0.65c-0.08,0-0.16,0.01-0.24,0.03   c-0.76,0.22-1.52,0.32-2.28,0.32s-1.52-0.1-2.28-0.32c-0.08-0.02-0.16-0.03-0.24-0.03c-0.41,0-0.76,0.26-0.87,0.65l-1.07,4.06   c-0.06,0.23-0.04,0.48,0.08,0.69c0.11,0.21,0.31,0.37,0.54,0.44c1.33,0.4,2.66,0.61,3.94,0.61c1.29,0,2.56-0.21,3.77-0.62   C30.84,18.73,31.1,18.23,30.95,17.76z M23.97,17.48l0.01-0.01c0.03,0.01,0.06,0.01,0.1,0.02C24.04,17.49,24.01,17.48,23.97,17.48z    M26.6,17.68c-0.83,0-1.68-0.1-2.55-0.3l0.56-2.34c0.63,0.12,1.26,0.18,1.89,0.18s1.26-0.06,1.89-0.18l0.56,2.36   C28.19,17.58,27.4,17.68,26.6,17.68z"></path>
	<path class="st0" d="M52.82,17.25l-2.39-3.27c-0.18-0.23-0.45-0.37-0.74-0.37l-15.87-0.53c-0.75-1.63-1.87-2.92-3.21-3.8   l-1.94-8.57C28.57,0.29,28.21,0,27.78,0h-2.56c-0.43,0-0.79,0.29-0.89,0.71l-1.94,8.57c-1.34,0.88-2.46,2.17-3.21,3.8L3.31,13.61   c-0.29,0-0.56,0.14-0.74,0.37l-2.39,3.27c-0.19,0.26-0.23,0.6-0.11,0.89c0.12,0.29,0.39,0.5,0.71,0.55l10.21,1.5   c-1.16,0.48-1.94,1.6-1.94,2.88c0,1.72,1.4,3.12,3.12,3.12c1.72,0,3.12-1.4,3.12-3.12c0-0.94-0.44-1.83-1.16-2.41l4.72,0.69   c1.28,3.54,4.27,5.82,7.65,5.82c3.35,0,6.34-2.25,7.63-5.74l4.66-0.71c-0.68,0.59-1.07,1.44-1.07,2.35c0,1.72,1.4,3.12,3.12,3.12   c1.71,0,3.11-1.4,3.11-3.12c0-1.24-0.75-2.35-1.87-2.84l10.15-1.54c0.31-0.05,0.58-0.26,0.7-0.55   C53.05,17.85,53.01,17.51,52.82,17.25z M12.17,24.55c-0.81,0-1.48-0.67-1.48-1.48c0-0.82,0.67-1.48,1.48-1.48   c0.82,0,1.48,0.66,1.48,1.48C13.65,23.88,12.99,24.55,12.17,24.55z M18.36,19.44L2.54,17.11l1.23-1.68l14.78-0.53   c-0.18,0.8-0.32,2.06-0.32,2.96C18.23,18.36,18.27,18.88,18.36,19.44z M25.95,1.82h1.1l1.48,6.5c-0.66-0.19-1.33-0.3-2.03-0.3   s-1.37,0.11-2.03,0.3L25.95,1.82z M26.5,25.35c-3.56,0-6.45-3.36-6.45-7.49c0-4.27,3.01-8.02,6.45-8.02s6.45,3.75,6.45,8.02   C32.95,21.99,30.06,25.35,26.5,25.35z M42.31,23.07c0,0.81-0.66,1.48-1.47,1.48c-0.82,0-1.49-0.67-1.49-1.48   c0-0.82,0.67-1.48,1.49-1.48C41.65,21.59,42.31,22.25,42.31,23.07z M34.64,19.51c0.09-0.56,0.13-1.11,0.13-1.65   c0-0.9-0.14-2.16-0.32-2.96l14.78,0.53l1.24,1.68L34.64,19.51z"></path>
	<path class="st0" d="M31.13,30.92C29.89,29.68,28.25,29,26.5,29c-1.74,0-3.39,0.68-4.62,1.92c-1.24,1.23-1.92,2.87-1.92,4.62   s0.68,3.39,1.92,4.63c1.23,1.23,2.87,1.91,4.62,1.91s3.39-0.68,4.63-1.91c1.23-1.24,1.91-2.88,1.91-4.63S32.36,32.15,31.13,30.92z    M26.5,40.62c-2.8,0-5.07-2.28-5.07-5.08s2.27-5.08,5.07-5.08s5.08,2.28,5.08,5.08S29.3,40.62,26.5,40.62z"></path>
	<path class="st0" d="M26.5,33.56c0.34,0,0.62,0.28,0.62,0.62c0,0.4,0.33,0.73,0.73,0.73c0.4,0,0.73-0.33,0.73-0.73   c0-0.87-0.54-1.65-1.36-1.95v-0.18c0-0.4-0.33-0.73-0.73-0.73c-0.4,0-0.73,0.33-0.73,0.73v0.18c-0.8,0.3-1.36,1.1-1.36,1.95   c0,1.15,0.94,2.09,2.09,2.09c0.34,0,0.62,0.28,0.62,0.62s-0.28,0.62-0.62,0.62c-0.34,0-0.62-0.28-0.62-0.62   c0-0.4-0.33-0.73-0.73-0.73s-0.73,0.33-0.73,0.73c0,0.87,0.54,1.65,1.36,1.95v0.18c0,0.4,0.33,0.73,0.73,0.73   c0.4,0,0.73-0.33,0.73-0.73v-0.18c0.81-0.31,1.36-1.09,1.36-1.95c0-1.15-0.94-2.09-2.09-2.09c-0.34,0-0.62-0.28-0.62-0.63   C25.88,33.84,26.16,33.56,26.5,33.56z"></path>
</g>
</svg>
