<?xml version="1.0" encoding="UTF-8"?>
<svg xmlns="http://www.w3.org/2000/svg" xmlns:xlink="http://www.w3.org/1999/xlink" version="1.1" id="Layer_1" x="0px" y="0px" viewBox="0 0 53 42.24" style="enable-background:new 0 0 53 42.24;" xml:space="preserve">
<style type="text/css">
	.st0{fill:#D3985A;}
	.st1{fill-rule:evenodd;clip-rule:evenodd;fill:#D3985A;}
</style>
<g>
	<path class="st0" d="M30.96,17.77l-1.06-4.06c-0.12-0.39-0.46-0.65-0.87-0.65c-0.08,0-0.16,0.01-0.24,0.03   c-0.75,0.22-1.52,0.32-2.28,0.32s-1.53-0.1-2.28-0.32c-0.08-0.02-0.16-0.03-0.24-0.03c-0.41,0-0.75,0.26-0.87,0.65l-1.06,4.06   C21.98,18,22,18.25,22.11,18.46c0.12,0.21,0.31,0.37,0.54,0.44c1.34,0.4,2.66,0.6,3.95,0.6c1.3,0,2.56-0.2,3.78-0.61   C30.84,18.73,31.1,18.24,30.96,17.77z M26.6,17.68c-0.82,0-1.69-0.1-2.55-0.3l0.56-2.33c0.62,0.12,1.26,0.18,1.89,0.18   s1.27-0.06,1.89-0.18l0.56,2.35C28.19,17.59,27.4,17.68,26.6,17.68z"></path>
	<path class="st0" d="M52.82,17.25l-2.39-3.26c-0.17-0.24-0.45-0.37-0.74-0.37l-15.87-0.53c-0.75-1.63-1.88-2.92-3.2-3.8l-1.95-8.58   C28.57,0.29,28.21,0,27.78,0h-2.55c-0.43,0-0.79,0.29-0.89,0.71l-1.95,8.58c-1.33,0.87-2.45,2.17-3.2,3.8L3.3,13.62   c-0.28,0-0.56,0.13-0.73,0.37l-2.39,3.26c-0.19,0.26-0.23,0.6-0.11,0.89s0.39,0.5,0.7,0.55l10.21,1.51   c-1.15,0.47-1.93,1.59-1.93,2.87c0,1.72,1.4,3.11,3.11,3.11c1.73,0,3.12-1.4,3.12-3.11c0-0.94-0.44-1.83-1.16-2.41l4.72,0.69   c1.28,3.53,4.28,5.81,7.65,5.81c3.34,0,6.34-2.25,7.63-5.73l4.66-0.71c-0.68,0.59-1.07,1.44-1.07,2.35c0,1.72,1.4,3.11,3.12,3.11   c1.72,0,3.11-1.4,3.11-3.11c0-1.25-0.75-2.35-1.87-2.84l10.14-1.54c0.31-0.05,0.58-0.26,0.7-0.55S53.01,17.51,52.82,17.25z    M12.17,24.55c-0.81,0-1.48-0.66-1.48-1.48c0-0.82,0.66-1.49,1.48-1.49c0.82,0,1.49,0.66,1.49,1.49   C13.66,23.89,12.99,24.55,12.17,24.55z M18.36,19.44L2.54,17.11l1.24-1.68l14.78-0.53c-0.19,0.8-0.33,2.07-0.33,2.96   C18.23,18.37,18.28,18.88,18.36,19.44z M25.95,1.83h1.1l1.48,6.5c-0.65-0.19-1.34-0.3-2.03-0.3s-1.38,0.11-2.03,0.3L25.95,1.83z    M26.5,25.36c-3.55,0-6.45-3.36-6.45-7.49c0-4.27,3.01-8.01,6.45-8.01s6.45,3.75,6.45,8.01C32.95,21.99,30.05,25.36,26.5,25.36z    M40.84,24.55c-0.82,0-1.49-0.66-1.49-1.48c0-0.82,0.66-1.49,1.49-1.49c0.81,0,1.48,0.66,1.48,1.49   C42.32,23.89,41.65,24.55,40.84,24.55z M34.63,19.52c0.09-0.56,0.14-1.11,0.14-1.66c0-0.89-0.14-2.16-0.33-2.96l14.78,0.53   l1.25,1.69L34.63,19.52z"></path>
	<path class="st0" d="M26.5,29.12c-3.62,0-6.56,2.94-6.56,6.56c0,3.62,2.94,6.56,6.56,6.56s6.56-2.94,6.56-6.56   C33.05,32.08,30.11,29.13,26.5,29.12z M26.5,40.64c-2.73,0-4.96-2.23-4.96-4.96c0-2.73,2.23-4.96,4.96-4.96s4.96,2.23,4.96,4.96   C31.45,38.41,29.23,40.63,26.5,40.64z"></path>
	<path class="st0" d="M27.3,35.35v-3.12c0-0.44-0.36-0.8-0.8-0.8c-0.44,0-0.8,0.36-0.8,0.8v3.45c0,0.21,0.08,0.41,0.23,0.56   l1.73,1.73c0.15,0.15,0.35,0.23,0.56,0.23c0.22,0,0.42-0.09,0.57-0.24c0.3-0.31,0.3-0.8,0-1.11L27.3,35.35z"></path>
</g>
</svg>
